<svg width="20" height="16" viewBox="0 0 20 16" fill="none" xmlns="http://www.w3.org/2000/svg">
<path fill-rule="evenodd" clip-rule="evenodd" d="M17.6172 7.88177H17.6562C18.9486 7.88177 20 8.9425 20 10.2463V14.5813H18.4375V16H16.875V14.5813H3.125V16H1.5625V14.5813H0V10.2463C0 8.9425 1.05141 7.88177 2.34375 7.88177V2.36453C2.34375 1.06073 3.39516 0 4.6875 0H15.2734C16.5658 0 17.6172 1.06073 17.6172 2.36453V7.88177ZM4.6875 1.57635C4.25672 1.57635 3.90625 1.92993 3.90625 2.36453V7.88177H5.35156V6.69951C5.35156 5.3957 6.40297 4.33498 7.69531 4.33498H12.2266C13.5189 4.33498 14.5703 5.3957 14.5703 6.69951V7.88177H16.0547V2.36453C16.0547 1.92993 15.7042 1.57635 15.2734 1.57635H4.6875ZM13.0078 6.69951V7.88177H6.91406V6.69951C6.91406 6.26491 7.26453 5.91133 7.69531 5.91133H12.2266C12.6573 5.91133 13.0078 6.26491 13.0078 6.69951ZM1.5625 13.0049H18.4375V10.2463C18.4375 9.8117 18.087 9.45813 17.6562 9.45813H2.34375C1.91297 9.45813 1.5625 9.8117 1.5625 10.2463V13.0049Z" fill="#1767C4"/>
</svg>
