<svg width="20" height="15" viewBox="0 0 20 15" fill="none" xmlns="http://www.w3.org/2000/svg">
<path fill-rule="evenodd" clip-rule="evenodd" d="M0.833333 15C5.92333 13.995 9.16667 9.51333 9.16667 5.22917C9.16667 1.92083 6.845 0 4.3325 0C2.15333 0 0 1.4975 0 4.14917C0 6.3175 1.5875 8.11333 3.66333 8.44C3.4825 10.11 1.85917 12.5325 0.0133333 13.2283L0.833333 15ZM11.6667 15C16.7567 13.995 20 9.51333 20 5.22917C20 1.92083 17.6783 0 15.1658 0C12.9867 0 10.8333 1.4975 10.8333 4.14917C10.8333 6.3175 12.4208 8.11333 14.4967 8.44C14.3158 10.11 12.6925 12.5325 10.8467 13.2283L11.6667 15Z" fill="white"/>
</svg>
