<svg width="64" height="64" viewBox="0 0 64 64" fill="none" xmlns="http://www.w3.org/2000/svg">
<path fill-rule="evenodd" clip-rule="evenodd" d="M16.6486 5.09712C18.6501 5.54724 20.1239 6.24824 21.2384 7.05903C26.1368 5.69956 31.8125 5.15226 37.1746 5.67835C31.7328 -0.46839 24.176 -1.21556 16.4313 1.48604C14.5679 2.13602 14.8134 4.72709 16.6486 5.09712Z" fill="#1767C4"/>
<path fill-rule="evenodd" clip-rule="evenodd" d="M8.70114 38.9009C12.4194 35.6558 16.6565 34.9135 21.2949 36.6947C25.6032 38.4025 32.6491 40.4194 39.0743 41.4546C38.611 40.7258 38.607 40.7212 38.5754 40.6667C36.8423 37.6543 33.0415 29.8368 35.1711 22.3257C36.4262 17.8994 39.4924 14.3382 44.2846 11.7409C44.3238 11.7189 44.3167 11.7229 45.0944 11.2974C39.2467 9.08484 32.6022 8.76472 26.4595 9.75304C20.9004 10.6423 18.001 12.0447 15.2782 13.8442C2.03977 22.583 -1.74384 34.4331 0.696146 44.3798C0.696396 44.3808 0.69677 44.3816 0.697019 44.3826C3.55706 56.0302 15.5146 63.3232 16.0222 63.6279C16.3073 63.7991 16.6345 63.8949 17.0012 63.8949C17.5255 63.8949 20.8178 63.784 23.1031 61.0923C25.1229 58.7133 25.6978 55.1718 24.8113 50.5666C24.5867 49.3987 23.3261 48.7232 22.2184 49.2081C22.1874 49.2216 19.0821 50.56 15.2953 50.4179C10.7458 50.2466 7.169 48.056 4.65067 43.9028C5.30015 42.7737 6.66199 40.6804 8.70114 38.9009Z" fill="#FEE74E"/>
<path fill-rule="evenodd" clip-rule="evenodd" d="M49.2608 13.2842C57.5289 18.1333 62.2247 26.9285 63.8708 37.6537C63.9421 38.1056 63.8462 38.5663 63.5999 38.9527C63.2759 39.4604 62.856 39.6384 62.281 39.8822C62.2324 39.9028 62.1828 39.9239 62.132 39.9456C56.6479 42.2939 50.1559 42.6385 43.8994 42.068L41.7995 38.7649C40.2938 36.1388 37.0388 29.4591 38.7719 23.3467C39.7423 19.9243 42.2006 17.1247 46.0786 15.0255C46.1788 14.9709 46.1059 15.0108 46.0837 15.023C46.0337 15.0503 46.2409 14.9366 49.2608 13.2842ZM48.0497 25.969C48.0497 26.9783 48.8572 27.8404 49.9369 27.8404C50.9703 27.8404 51.8082 27.0025 51.8082 25.969C51.8082 24.9355 50.9703 24.0977 49.9369 24.0977C48.8587 24.0977 48.0497 24.9581 48.0497 25.969Z" fill="#1767C4"/>
</svg>
