<svg width="83" height="30" viewBox="0 0 83 30" fill="none" xmlns="http://www.w3.org/2000/svg">
<path d="M17.6 20.2L11.44 21.14L3.26 4.98C3.02 4.48667 2.80667 4.14667 2.62 3.96C2.44667 3.77333 2.20667 3.62 1.9 3.5L1.32 3.28C1.02667 3.16 0.813333 3 0.68 2.8C0.546667 2.6 0.48 2.37333 0.48 2.12C0.48 1.77333 0.6 1.5 0.84 1.3C1.08 1.1 1.44667 0.999998 1.94 0.999998H12.42C12.9133 0.999998 13.28 1.1 13.52 1.3C13.7733 1.5 13.9 1.77333 13.9 2.12C13.9 2.74667 13.5667 3.15333 12.9 3.34L12.14 3.52C11.7 3.65333 11.4333 3.84667 11.34 4.1C11.26 4.34 11.34 4.72 11.58 5.24L17.48 18.18L14.96 19.44L21.36 6.12C21.64 5.52 21.7133 4.99333 21.58 4.54C21.4467 4.07333 21.0533 3.72667 20.4 3.5L19.66 3.28C19.4333 3.18667 19.2467 3.04667 19.1 2.86C18.9533 2.66 18.88 2.41333 18.88 2.12C18.88 1.77333 19 1.5 19.24 1.3C19.48 1.1 19.8467 0.999998 20.34 0.999998H26.24C26.7333 0.999998 27.0933 1.1 27.32 1.3C27.56 1.5 27.68 1.77333 27.68 2.12C27.68 2.38666 27.62 2.60666 27.5 2.78C27.38 2.95333 27.18 3.11333 26.9 3.26L26.58 3.42C26.3133 3.52667 26.0667 3.68667 25.84 3.9C25.6133 4.1 25.3733 4.39333 25.12 4.78C24.88 5.15333 24.5867 5.69333 24.24 6.4L17.6 20.2ZM10.5 18.7H18.22V25.16C18.22 25.4667 18.3067 25.72 18.48 25.92C18.6533 26.1067 18.9 26.26 19.22 26.38L20.18 26.64C20.8067 26.8667 21.12 27.28 21.12 27.88C21.12 28.2133 21 28.4867 20.76 28.7C20.5333 28.9 20.1733 29 19.68 29H9.04C8.54667 29 8.18 28.9 7.94 28.7C7.71333 28.4867 7.6 28.2133 7.6 27.88C7.6 27.28 7.91333 26.8667 8.54 26.64L9.48 26.38C9.82667 26.26 10.08 26.1067 10.24 25.92C10.4133 25.72 10.5 25.4667 10.5 25.16V18.7ZM32.6416 17.36H44.3616L44.4216 19.86H32.5416L32.6416 17.36ZM35.4016 27.88C35.4016 28.2133 35.2816 28.4867 35.0416 28.7C34.8149 28.9 34.4549 29 33.9616 29H27.6016C27.1216 29 26.7616 28.9 26.5216 28.7C26.2816 28.5 26.1616 28.2267 26.1616 27.88C26.1616 27.64 26.2216 27.4333 26.3416 27.26C26.4749 27.0867 26.6949 26.9133 27.0016 26.74L27.5216 26.48C27.9482 26.2533 28.2749 25.96 28.5016 25.6C28.7416 25.24 29.0016 24.6067 29.2816 23.7L35.0416 5.62C35.2549 4.92667 35.3216 4.42667 35.2416 4.12C35.1749 3.81333 34.9016 3.56667 34.4216 3.38C34.0616 3.22 33.8016 3.04 33.6416 2.84C33.4949 2.64 33.4216 2.4 33.4216 2.12C33.4216 1.76 33.5416 1.48667 33.7816 1.3C34.0216 1.1 34.3882 0.999998 34.8816 0.999998H46.1816C46.6749 0.999998 47.0349 1.1 47.2616 1.3C47.5016 1.48667 47.6216 1.76 47.6216 2.12C47.6216 2.41333 47.5416 2.66 47.3816 2.86C47.2349 3.06 47.0016 3.22 46.6816 3.34C46.3349 3.47333 46.1282 3.66 46.0616 3.9C45.9949 4.12667 46.0482 4.5 46.2216 5.02L52.4016 24.08C52.6416 24.8533 52.8749 25.42 53.1016 25.78C53.3416 26.14 53.6616 26.4 54.0616 26.56C54.4882 26.76 54.7749 26.9533 54.9216 27.14C55.0682 27.3267 55.1416 27.5733 55.1416 27.88C55.1416 28.2133 55.0216 28.4867 54.7816 28.7C54.5416 28.9 54.1749 29 53.6816 29H43.9816C43.4749 29 43.1016 28.9 42.8616 28.7C42.6349 28.4867 42.5216 28.2133 42.5216 27.88C42.5216 27.6 42.5949 27.3733 42.7416 27.2C42.9016 27.0267 43.1416 26.8733 43.4616 26.74L44.3616 26.48C44.7082 26.3467 44.8616 26.1533 44.8216 25.9C44.7949 25.6467 44.6949 25.2333 44.5216 24.66L38.0216 3.94L38.7816 3.44L32.4616 23.3C32.2749 23.9133 32.1816 24.4133 32.1816 24.8C32.1816 25.1867 32.3016 25.5067 32.5416 25.76C32.7816 26.0133 33.1549 26.26 33.6616 26.5L34.4816 26.78C34.7616 26.9 34.9816 27.0467 35.1416 27.22C35.3149 27.38 35.4016 27.6 35.4016 27.88ZM82.1541 21.28C82.1541 22.28 81.8874 23.28 81.3541 24.28C80.8207 25.28 80.0474 26.2 79.0341 27.04C78.0341 27.8667 76.8207 28.5267 75.3941 29.02C73.9807 29.5267 72.3807 29.78 70.5941 29.78C67.6607 29.78 65.1207 29.16 62.9741 27.92C60.8407 26.6667 59.1941 24.94 58.0341 22.74C56.8741 20.54 56.2941 18.0133 56.2941 15.16C56.2941 13.0133 56.6407 11.0333 57.3341 9.22C58.0274 7.40667 58.9941 5.83333 60.2341 4.5C61.4874 3.15333 62.9474 2.11333 64.6141 1.38C66.2807 0.633333 68.0941 0.259999 70.0541 0.259999C71.3341 0.259999 72.3741 0.379999 73.1741 0.619999C73.9874 0.846666 74.6274 1.08667 75.0941 1.34C75.5741 1.58 75.9607 1.7 76.2541 1.7C76.6141 1.7 76.9007 1.59333 77.1141 1.38C77.3274 1.15333 77.5474 0.933331 77.7741 0.719999C78.0007 0.506666 78.2941 0.399999 78.6541 0.399999C78.9474 0.399999 79.1874 0.493332 79.3741 0.68C79.5607 0.853332 79.7141 1.15333 79.8341 1.58L81.9141 8.6C82.0207 8.94667 81.9807 9.26 81.7941 9.54C81.6074 9.82 81.3341 10.0067 80.9741 10.1C80.6007 10.18 80.2607 10.1467 79.9541 10C79.6474 9.85333 79.4074 9.58667 79.2341 9.2C78.5274 7.6 77.7474 6.34 76.8941 5.42C76.0541 4.5 75.1607 3.84667 74.2141 3.46C73.2674 3.07333 72.2674 2.88 71.2141 2.88C70.1341 2.88 69.1541 3.13333 68.2741 3.64C67.3941 4.14667 66.6407 4.87333 66.0141 5.82C65.3874 6.75333 64.9074 7.88667 64.5741 9.22C64.2407 10.54 64.0741 12.0267 64.0741 13.68C64.0741 16.3067 64.4474 18.5133 65.1941 20.3C65.9541 22.0733 66.9941 23.4133 68.3141 24.32C69.6474 25.2267 71.1741 25.68 72.8941 25.68C74.4807 25.68 75.8874 25.2867 77.1141 24.5C78.3541 23.7133 79.3474 22.5867 80.0941 21.12C80.2807 20.7467 80.4807 20.5067 80.6941 20.4C80.9207 20.28 81.1674 20.2467 81.4341 20.3C81.6874 20.34 81.8674 20.4467 81.9741 20.62C82.0941 20.78 82.1541 21 82.1541 21.28Z" fill="white"/>
</svg>
