<svg width="329" height="480" viewBox="0 0 329 480" fill="none" xmlns="http://www.w3.org/2000/svg">
<rect width="329" height="480" rx="7" fill="#00397A"/>
<mask id="mask0" mask-type="alpha" maskUnits="userSpaceOnUse" x="0" y="0" width="329" height="480">
<rect width="329" height="480" rx="7" fill="white"/>
</mask>
<g mask="url(#mask0)">
<path d="M-73 -182.6C-73 -190.441 -73 -194.361 -71.4741 -197.356C-70.1319 -199.99 -67.9901 -202.132 -65.3559 -203.474C-62.3611 -205 -58.4407 -205 -50.6 -205H262.6C270.441 -205 274.361 -205 277.356 -203.474C279.99 -202.132 282.132 -199.99 283.474 -197.356C285 -194.361 285 -190.441 285 -182.6V114.537C285 120.449 285 123.405 284 125.907C283.117 128.116 281.686 130.064 279.841 131.566C277.752 133.268 274.931 134.15 269.288 135.915L-43.9118 233.9C-53.7559 236.979 -58.6779 238.519 -62.5856 237.484C-66.0072 236.577 -68.9584 234.409 -70.8452 231.414C-73 227.993 -73 222.836 -73 212.522V-182.6Z" fill="url(#paint0_linear)"/>
</g>
<defs>
<linearGradient id="paint0_linear" x1="-73" y1="-205" x2="-73" y2="240.477" gradientUnits="userSpaceOnUse">
<stop stop-color="#1767C4" stop-opacity="0.01"/>
<stop offset="1" stop-color="#439AFF" stop-opacity="0.16"/>
</linearGradient>
</defs>
</svg>
