<svg width="19" height="20" viewBox="0 0 19 20" fill="none" xmlns="http://www.w3.org/2000/svg">
<path fill-rule="evenodd" clip-rule="evenodd" d="M9.50002 0C6.68597 0 4.564 2.12336 4.564 4.93895C4.564 7.83699 6.77828 10.1944 9.50002 10.1944C12.2218 10.1944 14.436 7.83699 14.436 4.93918C14.436 2.12336 12.3141 0 9.50002 0ZM9.50002 8.73481C7.59878 8.73481 6.05224 7.03211 6.05224 4.93918C6.05224 2.92313 7.50229 1.45984 9.50002 1.45984C11.4658 1.45984 12.9478 2.95547 12.9478 4.93918C12.9478 7.03211 11.4013 8.73481 9.50002 8.73481ZM9.50002 11.2652C3.37387 11.2652 0 14.108 0 19.2701C0 19.6732 0.333114 20 0.74412 20H18.2559C18.6669 20 19 19.6732 19 19.2701C19 14.1083 15.6262 11.2652 9.50002 11.2652ZM1.51532 18.5402C1.80801 14.6805 4.49057 12.7251 9.50002 12.7251C14.5095 12.7251 17.1921 14.6805 17.485 18.5402H1.51532Z" fill="#1767C4"/>
</svg>
