<svg width="64" height="64" viewBox="0 0 64 64" fill="none" xmlns="http://www.w3.org/2000/svg">
<path fill-rule="evenodd" clip-rule="evenodd" d="M38.025 17.8082C38.1602 17.8082 38.294 17.814 38.4271 17.8228C36.5264 15.2202 33.454 13.5249 29.9916 13.5249C24.234 13.5249 19.55 18.209 19.55 23.9665C19.55 29.724 24.2341 34.4082 29.9916 34.4082H33.2574C31.1535 32.2175 29.8582 29.2447 29.8582 25.9748C29.8582 21.4717 33.5219 17.8082 38.025 17.8082Z" fill="#FEE74E"/>
<path fill-rule="evenodd" clip-rule="evenodd" d="M63.9999 40.0334C63.9999 38.9979 63.1604 38.1584 62.1249 38.1584H29.9916C22.1664 38.1584 15.8 31.792 15.8 23.9667C15.8 16.1415 22.1663 9.775 29.9916 9.775C37.817 9.775 44.1834 16.1414 44.1834 23.9666C44.1834 25.0021 45.0229 25.8416 46.0584 25.8416C47.0939 25.8416 47.9334 25.0021 47.9334 23.9666C47.9333 8.64525 35.6685 0 24.4688 0C10.9766 0 0 10.9766 0 24.4688L0.00025 50.0109C0.2305 49.8573 0.418625 49.6944 0.56625 49.5515C1.9235 48.2019 3.72475 47.4589 5.64087 47.4589C7.55638 47.4589 9.35712 48.2014 10.7144 49.5503C11.1525 49.9781 11.9447 50.5789 13.172 50.5789C14.4036 50.5789 15.1901 49.9759 15.6285 49.5515C16.9858 48.2019 18.787 47.4589 20.7031 47.4589C22.6186 47.4589 24.4194 48.2014 25.7768 49.5503C26.2149 49.9781 27.0071 50.5789 28.2344 50.5789C29.466 50.5789 30.2525 49.9759 30.6909 49.5515C32.0481 48.2019 33.8494 47.4589 35.7655 47.4589C37.681 47.4589 39.4818 48.2014 40.8391 49.5503C41.2765 49.9774 42.0686 50.5789 43.2967 50.5789C44.5284 50.5789 45.3149 49.9759 45.7533 49.5515C47.1105 48.2019 48.9117 47.4589 50.8279 47.4589C52.7434 47.4589 54.5441 48.2014 55.9015 49.5503C56.3396 49.9781 57.1319 50.5789 58.3591 50.5789C59.5907 50.5789 60.3773 49.9759 60.8156 49.5515C61.7141 48.6581 62.8077 48.0325 63.9997 47.7104L63.9999 40.0334Z" fill="#1767C4"/>
<path fill-rule="evenodd" clip-rule="evenodd" d="M58.3594 54.329C56.4445 54.329 54.6432 53.586 53.285 52.2366C52.8426 51.812 52.0664 51.209 50.8283 51.209C50.0058 51.209 49.1135 51.4947 48.3717 52.2365C47.0134 53.586 45.2121 54.329 43.2971 54.329C41.3821 54.329 39.581 53.5861 38.2228 52.2366C37.7804 51.812 37.0041 51.209 35.766 51.209C35.1516 51.209 34.187 51.368 33.3095 52.2365C31.9511 53.586 30.1499 54.329 28.2349 54.329C26.32 54.329 24.5187 53.586 23.1605 52.2366C22.7181 51.812 21.9419 51.209 20.7038 51.209C19.8813 51.209 18.989 51.4947 18.2472 52.2365C16.8889 53.586 15.0876 54.329 13.1726 54.329C11.2577 54.329 9.4565 53.586 8.09825 52.2366C7.65588 51.812 6.87962 51.209 5.6415 51.209C4.81913 51.209 3.92675 51.4947 3.185 52.2365C2.286 53.1296 1.19237 53.7551 0.00075 54.0775L0 62.1251C0 63.1606 0.8395 64.0001 1.875 64.0001H62.125C63.1605 64.0001 64 63.1606 64 62.1251V51.7735C63.8045 51.9025 63.6147 52.0557 63.434 52.2365C62.0756 53.5861 60.2744 54.329 58.3594 54.329Z" fill="#FEE74E"/>
</svg>
