<svg width="64" height="64" viewBox="0 0 64 64" fill="none" xmlns="http://www.w3.org/2000/svg">
<path fill-rule="evenodd" clip-rule="evenodd" d="M63.6693 2.98259L53.5968 13.0551L50.9449 10.4032L61.0174 0.330712C59.2886 0.0253365 55.6851 -0.338538 50.8155 0.612837C46.8863 1.38059 42.9023 2.85021 38.9744 4.98084C34.1151 7.61671 29.3249 11.2797 24.7365 15.868C21.2629 19.3416 18.2636 22.8076 15.6868 26.1258H37.874V48.313C41.1921 45.7362 44.6583 42.737 48.1319 39.2633C52.7201 34.6751 56.3831 29.8848 59.0191 25.0256C61.1499 21.0976 62.6195 17.1137 63.387 13.1845C64.3386 8.31484 63.9746 4.71121 63.6693 2.98259Z" fill="#1767C4"/>
<path fill-rule="evenodd" clip-rule="evenodd" d="M12.9026 29.876C11.4341 31.9465 10.1359 33.9315 8.99725 35.7915H28.2083V55.0024C30.0683 53.8637 32.0533 52.5655 34.1236 51.097V29.876H12.9026Z" fill="#FEE74E"/>
<path fill-rule="evenodd" clip-rule="evenodd" d="M6.81112 39.542C6.30912 40.4491 5.851 41.311 5.43538 42.1214C1.79025 49.226 0.507625 53.9579 0.45475 54.1557L0 55.8602L6.105 57.8947L8.1395 63.9999L9.84412 63.5451C10.042 63.4922 14.7739 62.2096 21.8785 58.5645C22.6889 58.1487 23.5507 57.6907 24.4579 57.1886V39.542H6.81112Z" fill="#FEE74E"/>
</svg>
