<svg width="24" height="24" viewBox="0 0 24 24" fill="none" xmlns="http://www.w3.org/2000/svg">
<path fill-rule="evenodd" clip-rule="evenodd" d="M5.05116 20.0732C4.72331 20.0679 4.42882 19.8747 4.29767 19.579L1.53488 13.8398C1.4806 13.7288 1.45236 13.6071 1.4522 13.4839C1.45165 13.0289 1.826 12.6596 2.28837 12.6591H7.78605V0.823841C7.78605 0.564528 7.9101 0.320392 8.12093 0.164804C8.49086 -0.108186 9.01559 -0.0343879 9.29302 0.329563L16.2977 9.66593C16.4064 9.80854 16.4651 9.98199 16.4651 10.1602C16.4651 10.6152 16.0903 10.984 15.6279 10.984H9.46047V12.6865H21.7674C21.8927 12.6867 22.0163 12.7145 22.1292 12.7679C22.5459 12.965 22.7213 13.4573 22.5209 13.8673L19.7581 19.6064C19.6189 19.8914 19.3261 20.0729 19.0047 20.0732H5.05116ZM22.3535 21.913C22.6884 22.2426 22.8279 22.3524 23.1628 22.3524H24V24H23.1628C22.1302 24 21.5163 23.4233 21.1814 23.0938C20.8465 22.7643 20.707 22.6545 20.3721 22.6545C20.0372 22.6545 19.9535 22.7094 19.5628 23.0938C19.1721 23.4783 18.614 24 17.5814 24C16.5488 24 15.9349 23.4233 15.6 23.0938C15.2651 22.7643 15.1256 22.6545 14.7907 22.6545C14.4558 22.6545 14.3721 22.7094 13.9814 23.0938C13.5907 23.4783 13.0326 24 12 24C10.9674 24 10.3535 23.4233 10.0186 23.0938C9.68372 22.7643 9.54419 22.6545 9.2093 22.6545C8.87442 22.6545 8.7907 22.7094 8.4 23.0938C8.0093 23.4783 7.45116 24 6.4186 24C5.38605 24 4.77209 23.4233 4.43721 23.0938C4.10233 22.7643 3.96279 22.6545 3.62791 22.6545C3.29302 22.6545 3.2093 22.7094 2.8186 23.0938C2.42791 23.4783 1.86977 24 0.837209 24H0V22.3524H0.837209C1.17209 22.3524 1.25581 22.2975 1.64651 21.913C2.03721 21.5286 2.59535 21.0069 3.62791 21.0069C4.66047 21.0069 5.27442 21.5835 5.6093 21.913C5.94419 22.2426 6.08372 22.3524 6.4186 22.3524C6.75349 22.3524 6.83721 22.2975 7.22791 21.913C7.6186 21.5286 8.17674 21.0069 9.2093 21.0069C10.2419 21.0069 10.8558 21.5835 11.1907 21.913C11.5256 22.2426 11.6651 22.3524 12 22.3524C12.3349 22.3524 12.4186 22.2975 12.8093 21.913C13.2 21.5286 13.7581 21.0069 14.7907 21.0069C15.8233 21.0069 16.4372 21.5835 16.7721 21.913C17.107 22.2426 17.2465 22.3524 17.5814 22.3524C17.9163 22.3524 18 22.2975 18.3907 21.913C18.7814 21.5286 19.3395 21.0069 20.3721 21.0069C21.4047 21.0069 21.9628 21.5286 22.3535 21.913Z" fill="white"/>
</svg>
